<svg xmlns="http://www.w3.org/2000/svg" viewBox="0 0 213.05 139.36"><defs><style>.cls-1{fill:#f1d78e;}.cls-2{fill:#e7bc3d;}.cls-3{fill:#b4d6db;}.cls-4{fill:#fa3c5a;}.cls-5{fill:#222221;}.cls-6{font-size:32.55px;font-family:GoodDog;}</style></defs><title>BananaLogo</title><g id="Layer_2" data-name="Layer 2"><g id="OBJECTS"><path class="cls-1" d="M35.42,62.94c.46.06.9.15,1.35.2a.47.47,0,0,0,.42-.15c23.41.76,47-.5,70.42-.27q36.69.36,73.34,1.75a1,1,0,0,0,1-.57,1.07,1.07,0,0,0,.27.34c3,2.59,2.17,11,2.11,14.66-.06,4.31-.5,8.57-.87,12.87-50.83-1.21-102-1.79-152.8-.28C29.24,81.57,27.39,71.82,33,62.76a.77.77,0,0,0,.11-.3l.66.17a.62.62,0,0,0,.53.27Z"/><path class="cls-2" d="M164.32,103.33a.05.05,0,0,0,0-.1C164.24,103.23,164.24,103.33,164.32,103.33Zm-.51,0a.09.09,0,1,0,0-.18A.09.09,0,0,0,163.81,103.36Zm46.07-.06c-16.1,3.93-31.19,2.8-47.46.09,0-.06,0-.1.07-.15,7.61-.31,16.41-4.13,22.06-8.95a.63.63,0,0,0,.23-.66,1,1,0,0,0,.38-1.53,72.3,72.3,0,0,0,1.34-15.2,70.11,70.11,0,0,0,22.34.5c-3.37,4.11-7.08,7.88-10.77,11.73a.7.7,0,0,0-.16.46,1.07,1.07,0,0,0,.13,1.15A124.46,124.46,0,0,0,209.88,103.3Z"/><path class="cls-2" d="M182.57,93.66a76.81,76.81,0,0,1-10.33,5.42,94.09,94.09,0,0,1-9.2,2.74,59.18,59.18,0,0,0,2.43-8.29Q174,93.58,182.57,93.66Z"/><path class="cls-2" d="M31.75,93.75a0,0,0,1,0,0-.09,4.18,4.18,0,0,0-.5,0,.06.06,0,1,0,0,.12Zm-.42-.7a52.26,52.26,0,0,0,17.93,10.51c-9.93,1.09-19.72,2.24-29.77,1.94-2.59-.08-14.84.59-16-2.44-.5-1.22,8.2-11.13,9.29-12.61a1,1,0,0,0-.15-1.12c-2.68-3-6.46-6.44-8-10.18-1.3-3.07-2.3-2.4,2.18-2.45,6.86-.07,13.53.49,20.43-.36A62.78,62.78,0,0,0,29,92a.68.68,0,0,0,.5.56.69.69,0,0,0,.71.53Z"/><path class="cls-2" d="M49.74,101.79a107.56,107.56,0,0,1-17-8.72c4.58,0,9.18,0,13.76.06A61.18,61.18,0,0,0,49.74,101.79Z"/><path class="cls-3" d="M156.34,93.46c-6.11,22.24-28.16,38-51.22,36.82-22.68-1.18-40.93-17.1-49.93-37.11C88.89,93.29,122.62,93.28,156.34,93.46Z"/><path class="cls-3" d="M107.48,24.32c22.83.34,43.28,16,50.84,37.2q-25.33-.68-50.71-.83c-17.37-.11-35-.62-52.48-.2C64.16,39.57,84,24,107.48,24.32Z"/><path class="cls-4" d="M163.22,93.52a56.36,56.36,0,0,1-56.82,43.69c-27.92-.79-48.08-19.68-58.65-44.08,2.09,0,4.17,0,6.27,0,7.53,21.74,29,38.38,52.17,39.12,23.62.75,46-15.59,52.17-38.35a1.21,1.21,0,0,0,0-.46Z"/><path class="cls-4" d="M48.5,60.72c10.12-24.19,32.38-42.51,59.6-42.11,26,.39,49.4,18.72,57.46,43.12-1.68-.06-3.34-.12-5-.16-7.8-22.16-29.26-38.74-53.06-39.09-23.35-.35-46.71,15.66-53.89,38C51.88,60.57,50.2,60.66,48.5,60.72Z"/><path class="cls-5" d="M164.32,103.23a.05.05,0,0,1,0,.1C164.24,103.33,164.24,103.23,164.32,103.23Z"/><path class="cls-5" d="M163.81,103.18a.09.09,0,0,1,0,.18A.09.09,0,0,1,163.81,103.18Z"/><path class="cls-5" d="M55.13,60.49c17.49-.42,35.11.09,52.48.2q25.36.14,50.71.83c-7.56-21.24-28-36.86-50.84-37.2C84,24,64.16,39.57,55.13,60.49Zm-1.54,0c7.18-22.38,30.54-38.39,53.89-38,23.8.35,45.26,16.93,53.06,39.09,1.68,0,3.34.1,5,.16C157.5,37.33,134.12,19,108.1,18.61c-27.22-.4-49.48,17.92-59.6,42.11C50.2,60.66,51.88,60.57,53.59,60.52Zm-19.33,1c4.31-.37,8.65-.59,13-.77,7.17-25.8,34.48-44.42,60.85-44,27,.47,51.47,19.58,59.77,45,4.37.14,8.73.26,13.08.41a1.09,1.09,0,0,1,1,.8l-.06.9a1,1,0,0,1-1,.57q-36.64-1.36-73.34-1.75c-23.42-.23-47,1-70.42.27a.47.47,0,0,1-.42.15c-.45,0-.89-.14-1.35-.2l-1.16,0a.62.62,0,0,1-.53-.27l-.66-.17,0-.91c.3,0,.62,0,.92.05A.6.6,0,0,1,34.26,61.54Z"/><path class="cls-5" d="M31.75,93.66a0,0,0,1,1,0,.09h-.5a.06.06,0,1,1,0-.12A4.18,4.18,0,0,1,31.75,93.66Z"/><path class="cls-5" d="M172.24,99.08a76.81,76.81,0,0,0,10.33-5.42q-8.55-.09-17.1-.13a59.18,59.18,0,0,1-2.43,8.29A94.09,94.09,0,0,0,172.24,99.08Zm-9.82,4.31c16.27,2.71,31.36,3.84,47.46-.09A124.46,124.46,0,0,1,198,90.74a1.07,1.07,0,0,1-.13-1.15.7.7,0,0,1,.16-.46c3.69-3.85,7.4-7.62,10.77-11.73a70.11,70.11,0,0,1-22.34-.5,72.3,72.3,0,0,1-1.34,15.2,1,1,0,0,1-.38,1.53.63.63,0,0,1-.23.66c-5.65,4.82-14.45,8.64-22.06,8.95C162.46,103.29,162.45,103.33,162.42,103.39Zm-57.3,26.89c23.06,1.19,45.11-14.58,51.22-36.82-33.72-.18-67.45-.17-101.15-.29C64.19,113.18,82.44,129.1,105.12,130.28ZM47.75,93.13c10.57,24.4,30.73,43.29,58.65,44.08a56.36,56.36,0,0,0,56.82-43.69l-4.84,0a1.21,1.21,0,0,1,0,.46c-6.21,22.76-28.55,39.1-52.17,38.35C83,131.54,61.55,114.9,54,93.16,51.92,93.16,49.84,93.14,47.75,93.13Zm1.51,10.43A52.26,52.26,0,0,1,31.33,93.05H30.24a.69.69,0,0,1-.71-.53A.68.68,0,0,1,29,92a62.78,62.78,0,0,1-1.86-15.62c-6.9.85-13.57.29-20.43.36-4.48,0-3.48-.62-2.18,2.45,1.56,3.74,5.34,7.14,8,10.18a1,1,0,0,1,.15,1.12c-1.09,1.48-9.79,11.39-9.29,12.61,1.21,3,13.46,2.36,16,2.44C29.54,105.8,39.33,104.65,49.26,103.56Zm-16.56-42c.14,0,.27,0,.41,0l0,.91a.77.77,0,0,1-.11.3c-5.57,9.06-3.72,18.81-2.33,28.73,50.82-1.51,102-.93,152.8.28.37-4.3.81-8.56.87-12.87.06-3.63.9-12.07-2.11-14.66a1.07,1.07,0,0,1-.27-.34L182,63a1.18,1.18,0,0,1,1.8-.34c3.21,2.73,2.62,8.15,2.71,12,0,.09,0,.16,0,.25h.19A67.72,67.72,0,0,0,211,75a1,1,0,0,1,1,1.7,69.66,69.66,0,0,1-12.28,12.81,123.75,123.75,0,0,0,13,13.61,1,1,0,0,1-.47,1.74c-16.09,4.3-34.4,5.4-50.28-.48a58.78,58.78,0,0,1-55.59,35c-23-.65-44.74-14.67-55.32-34.92-16.25,4.19-33.79,3.6-50.22,1.17a.91.91,0,0,1-.55-1.33c2.75-3.75,10.38-10.59,9.21-15.59-.12-.53-3.13-3.86-3.46-4.3C3.91,81.56,2,78.64.12,75.65c-.34-.55.09-1.49.8-1.4a146.12,146.12,0,0,0,26.29.47h0a28.4,28.4,0,0,1,4-13A1,1,0,0,1,32.7,61.52Zm.06,31.55a107.56,107.56,0,0,0,17,8.72,61.18,61.18,0,0,1-3.22-8.66C41.94,93.11,37.34,93.1,32.76,93.07Z"/><text class="cls-6" transform="translate(72.93 86.12)">B-Boys</text><path d="M91.42,107.29a.26.26,0,0,1,.19.08.26.26,0,0,1,.09.19.24.24,0,0,1-.09.2.26.26,0,0,1-.19.08h-5a.28.28,0,0,1-.2-.08.29.29,0,0,1-.07-.2v-9a.25.25,0,0,1,.08-.19.28.28,0,0,1,.2-.08.32.32,0,0,1,.21.08.29.29,0,0,1,.08.19v9l-.25-.25Z"/><path d="M101.54,103.07a5.73,5.73,0,0,1-.34,2,4.57,4.57,0,0,1-.94,1.55,4.21,4.21,0,0,1-1.45,1,4.91,4.91,0,0,1-3.64,0,4.21,4.21,0,0,1-1.45-1,4.57,4.57,0,0,1-.94-1.55,6,6,0,0,1,0-4,4.57,4.57,0,0,1,.94-1.55,4.08,4.08,0,0,1,1.45-1,4.78,4.78,0,0,1,3.64,0,4.08,4.08,0,0,1,1.45,1,4.57,4.57,0,0,1,.94,1.55A5.71,5.71,0,0,1,101.54,103.07Zm-.58,0a4.85,4.85,0,0,0-.51-2.28,3.77,3.77,0,0,0-1.4-1.53A3.88,3.88,0,0,0,97,98.72a3.93,3.93,0,0,0-2.06.54,3.84,3.84,0,0,0-1.4,1.53,5.37,5.37,0,0,0,0,4.57,4,4,0,0,0,5.52,1.52,3.74,3.74,0,0,0,1.4-1.52A4.89,4.89,0,0,0,101,103.07Z"/><path d="M103.86,107.84a.26.26,0,0,1-.28-.28v-9a.25.25,0,0,1,.08-.19.27.27,0,0,1,.19-.08h3.59a3,3,0,0,1,1.41.32,2.35,2.35,0,0,1,1.29,2.14,2.71,2.71,0,0,1-.23,1.13,2.3,2.3,0,0,1-.62.84,2.61,2.61,0,0,1-.92.48l-.63-.11a2.16,2.16,0,0,1,1,.28,2.25,2.25,0,0,1,.8.82,2.57,2.57,0,0,1,.31,1.31,6.43,6.43,0,0,0,.06,1,1.43,1.43,0,0,0,.17.51.83.83,0,0,0,.23.26.33.33,0,0,1,.13.13.31.31,0,0,1,0,.19.25.25,0,0,1-.09.13.31.31,0,0,1-.13.06.28.28,0,0,1-.15,0,1.52,1.52,0,0,1-.68-1,5.21,5.21,0,0,1-.12-1.28,2.28,2.28,0,0,0-.2-1,1.51,1.51,0,0,0-.5-.58,1.61,1.61,0,0,0-.65-.27,3.12,3.12,0,0,0-.64-.07H104l.12-.17v4.15a.3.3,0,0,1-.08.2A.32.32,0,0,1,103.86,107.84ZM104,103h3.5a2.4,2.4,0,0,0,1-.32,2.18,2.18,0,0,0,1-1.92,1.77,1.77,0,0,0-.59-1.38,2.23,2.23,0,0,0-1.6-.56h-3.29l.07-.09v4.42Z"/><path d="M112.89,98.31H118a.27.27,0,0,1,.27.27.26.26,0,0,1-.27.27h-5l.13-.23v4.22l-.16-.19h4.38a.26.26,0,0,1,.19.08.26.26,0,0,1,.09.19.24.24,0,0,1-.09.2.26.26,0,0,1-.19.08h-4.35l.13-.15v4.31l-.05-.07H118a.27.27,0,0,1,.27.27.26.26,0,0,1-.08.2.29.29,0,0,1-.19.08h-5.13a.27.27,0,0,1-.28-.28v-9a.29.29,0,0,1,.08-.19A.3.3,0,0,1,112.89,98.31Z"/><path d="M120.59,98.31l.14,0a.47.47,0,0,1,.12.09l3.9,5.81h-.27l3.91-5.81a.25.25,0,0,1,.26-.12.26.26,0,0,1,.17.09.24.24,0,0,1,.07.18v9a.27.27,0,0,1-.09.2.3.3,0,0,1-.2.08.28.28,0,0,1-.2-.08.3.3,0,0,1-.08-.2V99.2h.15l-3.66,5.53a.24.24,0,0,1-.08.09l-.11,0-.13,0a.2.2,0,0,1-.09-.09l-3.74-5.64h.21v8.47a.27.27,0,0,1-.27.28.28.28,0,0,1-.2-.08.29.29,0,0,1-.07-.2v-9a.27.27,0,0,1,.07-.18A.22.22,0,0,1,120.59,98.31Z"/><path d="M89.52,119.65a.3.3,0,0,1-.1.2.22.22,0,0,1-.19.08.25.25,0,0,1-.21-.08.27.27,0,0,1-.07-.2v-9a.24.24,0,0,1,.08-.2.28.28,0,0,1,.2-.08.32.32,0,0,1,.21.08.28.28,0,0,1,.08.2Z"/><path d="M95.78,110.41a2.75,2.75,0,0,1,1.35.32,2.28,2.28,0,0,1,.9.92,2.82,2.82,0,0,1,.32,1.36,2.94,2.94,0,0,1-.32,1.37,2.4,2.4,0,0,1-.9,1,2.56,2.56,0,0,1-1.35.35h-3l0-.09v4a.23.23,0,0,1-.09.19.25.25,0,0,1-.19.08.26.26,0,0,1-.22-.08.29.29,0,0,1-.07-.19v-9a.27.27,0,0,1,.08-.19.29.29,0,0,1,.19-.08Zm0,4.75a2,2,0,0,0,1.07-.28,1.89,1.89,0,0,0,.68-.77,2.34,2.34,0,0,0,.25-1.1,2.16,2.16,0,0,0-.25-1.08,1.75,1.75,0,0,0-.68-.72,2.12,2.12,0,0,0-1.07-.26h-3l0-.06v4.31l0,0Z"/><path d="M102.81,120.07a4.11,4.11,0,0,1-1.82-.35,5.55,5.55,0,0,1-1.47-1.08.18.18,0,0,1,0-.07.25.25,0,0,1,0-.13.32.32,0,0,1,.09-.21.29.29,0,0,1,.21-.1.31.31,0,0,1,.23.12,3.78,3.78,0,0,0,1.27,1,3.65,3.65,0,0,0,1.52.33,3.22,3.22,0,0,0,1.24-.23,2,2,0,0,0,.86-.64,1.6,1.6,0,0,0,.31-1,1.74,1.74,0,0,0-.38-1.12,2.84,2.84,0,0,0-1-.69,12.41,12.41,0,0,0-1.22-.5l-1-.4a3.59,3.59,0,0,1-.88-.5,2,2,0,0,1-.63-.73,2.42,2.42,0,0,1-.23-1.1,2.12,2.12,0,0,1,.36-1.2,2.52,2.52,0,0,1,1-.86,3.77,3.77,0,0,1,1.6-.32,4.34,4.34,0,0,1,1.51.28,2.59,2.59,0,0,1,1.16.84.59.59,0,0,1,.14.28.26.26,0,0,1-.11.19.28.28,0,0,1-.22.1.25.25,0,0,1-.18-.08,2.46,2.46,0,0,0-.59-.57,2.53,2.53,0,0,0-.78-.36,3.12,3.12,0,0,0-.93-.13,3.34,3.34,0,0,0-1.21.21,2.26,2.26,0,0,0-.87.62,1.52,1.52,0,0,0-.33,1,1.49,1.49,0,0,0,.36,1,2.75,2.75,0,0,0,.92.66c.38.18.76.34,1.15.49s.68.24,1,.39a4.2,4.2,0,0,1,.93.52,2.2,2.2,0,0,1,.66.79,2.67,2.67,0,0,1,.24,1.2,2,2,0,0,1-.36,1.15,2.59,2.59,0,0,1-1,.86A3.6,3.6,0,0,1,102.81,120.07Z"/><path d="M114.55,110.41a.26.26,0,0,1,.19.08.27.27,0,0,1,.08.19v5.88a3.35,3.35,0,0,1-.48,1.76,3.76,3.76,0,0,1-1.26,1.28,3.53,3.53,0,0,1-3.52,0,3.62,3.62,0,0,1-1.27-1.28,3.35,3.35,0,0,1-.48-1.76v-5.88a.26.26,0,0,1,.07-.19.29.29,0,0,1,.22-.08.28.28,0,0,1,.2.08.27.27,0,0,1,.08.19v5.88a2.85,2.85,0,0,0,.4,1.49,3,3,0,0,0,1.06,1.08,2.93,2.93,0,0,0,1.48.4,2.85,2.85,0,0,0,1.48-.4,3.07,3.07,0,0,0,1.07-1.08,2.85,2.85,0,0,0,.4-1.49v-5.88a.27.27,0,0,1,.08-.19A.26.26,0,0,1,114.55,110.41Z"/><path d="M117.8,110.41a.31.31,0,0,1,.13,0,.28.28,0,0,1,.13.09l3.9,5.81h-.27l3.91-5.81a.25.25,0,0,1,.26-.12.26.26,0,0,1,.17.09.24.24,0,0,1,.07.18v9a.23.23,0,0,1-.09.19.26.26,0,0,1-.2.08.24.24,0,0,1-.2-.08.26.26,0,0,1-.08-.19v-8.37h.15L122,116.83a.15.15,0,0,1-.08.08.2.2,0,0,1-.11,0,.28.28,0,0,1-.13,0,.14.14,0,0,1-.09-.08l-3.74-5.65h.21v8.48a.27.27,0,0,1-.27.27.24.24,0,0,1-.2-.08.25.25,0,0,1-.07-.19v-9a.27.27,0,0,1,.07-.18A.22.22,0,0,1,117.8,110.41Z"/><path class="cls-2" d="M151.17,2.05C141.4,16,124.41,23.41,107.62,22.19,89.77,20.89,76.24,12.4,61.34,3.6a3.19,3.19,0,0,0-3.85.55A4.59,4.59,0,0,0,53.59,9c.16,27,30.21,45.86,55,45.57A58.36,58.36,0,0,0,145,41c11.62-9.7,14.58-22.06,14.43-36.67C159.38-.35,153.61-1.43,151.17,2.05ZM81.91,35.78A73.17,73.17,0,0,0,94.43,41,54.12,54.12,0,0,1,81.91,35.78Z"/><path class="cls-5" d="M156.59,1.16a.63.63,0,0,0-1.07,0,86.09,86.09,0,0,0-4.25,8.28.5.5,0,0,0-.48-.05c-6.72,2.62-10.37,8.8-16.44,12.46-7.79,4.7-17.17,5.78-26.1,5.32-16.79-.87-32.59-7.34-43.14-20.73a.38.38,0,0,0-.6,0C64.23,5.47,62.86,5.09,62,5a4.88,4.88,0,0,0-4.35,1.66.67.67,0,0,0-.06.12l-.1,0c-.19-.11-.43.17-.24.31l.11.08a.69.69,0,0,0-.53.67A42.83,42.83,0,0,0,70.11,40.28c9.54,9,22.88,12,35.66,12.58C118,53.42,131,51,140.69,43,149,36,160.86,23.39,155.36,11.85a.24.24,0,0,0-.09-.11,40.26,40.26,0,0,0,5.33-4.57.53.53,0,0,0,.12-.49.5.5,0,0,0,.74-.42A5.57,5.57,0,0,0,156.59,1.16ZM60.67,6.09c.54-.15,3.49-.33,2.81,1.14-.4.85-2.63.58-3.34.47a7.39,7.39,0,0,1-1.46-.42A4.47,4.47,0,0,1,60.67,6.09Zm93.8,5.14a.4.4,0,0,0,.1.67.39.39,0,0,0,0,.3c4.53,12.59-10,27.83-20.3,33.53-9.69,5.35-21.09,6.47-32,5.47-11.61-1.07-23.44-4.26-31.91-12.71A41.36,41.36,0,0,1,58.3,7.77v0a6.53,6.53,0,0,0,3.84.84c.88-.09,2.22-.53,2.41-1.53,8.7,13,24.08,19.33,39.19,21.08,8.62,1,17.73.72,25.91-2.43,8.67-3.34,13.36-11.65,21.64-15.22,0,0,0,0,.06,0a.52.52,0,0,0,.79-.17c1.25-2.33,2.61-4.67,3.74-7.08a5.64,5.64,0,0,0,3.49,3.59A50.43,50.43,0,0,0,154.47,11.23Zm5.76-5.4a5.6,5.6,0,0,1-3.71-3.92A5,5,0,0,1,160.43,6,.56.56,0,0,0,160.23,5.83Z"/><path class="cls-5" d="M141.67,28.45c-22.48,14.92-50.93,13-71.45-4.5-.11-.1-.26.06-.16.15,20.17,18.46,49.53,20.55,72.37,5.64C143.23,29.22,142.48,27.91,141.67,28.45Z"/><path class="cls-5" d="M123.36,46.52a17.08,17.08,0,0,1-9.62,2.36c-.34,0-.32.49,0,.53a14,14,0,0,0,10-2.29A.35.35,0,0,0,123.36,46.52Z"/><path class="cls-5" d="M122.72,45.05l-4.51.85c-.44.09-.25.74.18.67l4.55-.75C123.44,45.74,123.23,45,122.72,45.05Z"/></g></g></svg>